HIERARCHY
ROOT root
{
	OFFSET	0	13.1	24.9
	CHANNELS 6  Xposition Yposition Zposition Xrotation Yrotation Zrotation
	JOINT spine_1
	{
		OFFSET	0	9.99999	0
		CHANNELS 3  Xrotation Yrotation Zrotation
		JOINT spine_2
		{
			OFFSET	0	112	-10
			CHANNELS 3  Xrotation Yrotation Zrotation
			JOINT spine_3
			{
				OFFSET	0	206.5	19.3
				CHANNELS 3  Xrotation Yrotation Zrotation
				JOINT spine_4
				{
					OFFSET	0	110.4	14.6
					CHANNELS 3  Xrotation Yrotation Zrotation
					JOINT neck_1
					{
						OFFSET	0	71.8	-50.3
						CHANNELS 3  Xrotation Yrotation Zrotation
						JOINT neck_2
						{
							OFFSET	0	86.2	-25.8
							CHANNELS 3  Xrotation Yrotation Zrotation
							JOINT head_ee
							{
								OFFSET	0	179.8	-8.7
								CHANNELS 3  Xrotation Yrotation Zrotation
								End Site
								{
									OFFSET	1	0	0
								}
							}
						}
					}
					JOINT left_clavicle
					{
						OFFSET	-43.2	22.4	-70.8
						CHANNELS 3  Xrotation Yrotation Zrotation
						JOINT left_shoulder
						{
							OFFSET	-93.9	-5.79999	48.7
							CHANNELS 3  Xrotation Yrotation Zrotation
							JOINT left_elbow
							{
								OFFSET	-291.4	-30.8	15.2
								CHANNELS 3  Xrotation Yrotation Zrotation
								JOINT left_lowarm_twist
								{
									OFFSET	-110.7	-3.89999	13.6
									CHANNELS 3  Xrotation Yrotation Zrotation
									JOINT left_hand
									{
										OFFSET	-110.7	-3.89999	13.6
										CHANNELS 3  Xrotation Yrotation Zrotation
										JOINT left_ee
										{
											OFFSET	-80.8	-5.10001	12.1
											CHANNELS 3  Xrotation Yrotation Zrotation
											End Site
											{
												OFFSET	1	0	0
											}
										}
									}
								}
							}
						}
					}
					JOINT right_clavicle
					{
						OFFSET	43.2	22.4	-70.8
						CHANNELS 3  Xrotation Yrotation Zrotation
						JOINT right_shoulder
						{
							OFFSET	93.9	-5.79999	48.7
							CHANNELS 3  Xrotation Yrotation Zrotation
							JOINT right_elbow
							{
								OFFSET	291.4	-30.8	15.2
								CHANNELS 3  Xrotation Yrotation Zrotation
								JOINT right_lowarm_twist
								{
									OFFSET	110.7	-3.89999	13.6
									CHANNELS 3  Xrotation Yrotation Zrotation
									JOINT right_hand
									{
										OFFSET	110.7	-3.89999	13.6
										CHANNELS 3  Xrotation Yrotation Zrotation
										JOINT right_ee
										{
											OFFSET	80.8	-5.10001	12.1
											CHANNELS 3  Xrotation Yrotation Zrotation
											End Site
											{
												OFFSET	1	0	0
											}
										}
									}
								}
							}
						}
					}
				}
			}
		}
	}
	JOINT left_hip
	{
		OFFSET	-82.8	-127.5	0.300001
		CHANNELS 3  Xrotation Yrotation Zrotation
		JOINT left_knee
		{
			OFFSET	-28.2	-396.7	2.2
			CHANNELS 3  Xrotation Yrotation Zrotation
			JOINT left_ankle
			{
				OFFSET	-11.7	-411.3	35.4
				CHANNELS 3  Xrotation Yrotation Zrotation
				JOINT left_toes
				{
					OFFSET	0	-60	-88.6
					CHANNELS 3  Xrotation Yrotation Zrotation
					JOINT left_foot_ee
					{
						OFFSET	-22.5	-16.5	-42.2
						CHANNELS 3  Xrotation Yrotation Zrotation
						End Site
						{
							OFFSET	1	0	0
						}
					}
				}
			}
		}
	}
	JOINT right_hip
	{
		OFFSET	82.8	-127.5	0.300001
		CHANNELS 3  Xrotation Yrotation Zrotation
		JOINT right_knee
		{
			OFFSET	28.2	-396.7	2.2
			CHANNELS 3  Xrotation Yrotation Zrotation
			JOINT right_ankle
			{
				OFFSET	11.7	-411.3	35.4
				CHANNELS 3  Xrotation Yrotation Zrotation
				JOINT right_toes
				{
					OFFSET	0	-60	-88.6
					CHANNELS 3  Xrotation Yrotation Zrotation
					JOINT right_foot_ee
					{
						OFFSET	22.5	-16.5	-42.2
						CHANNELS 3  Xrotation Yrotation Zrotation
						End Site
						{
							OFFSET	1	0	0
						}
					}
				}
			}
		}
	}
}
MOTION
Frames: 16
Frame Time: 0.02
391.555 721.904 -1204.45 -165.925539446 -18.223082545 -179.537099657 6.02558 0.386128 0.756538 6.02584 0.337207 0.779573 6.0301 0.252448 0.810993 6.02938 0.377358 0.76095 -5.58331 12.6203 5.02724 -5.47932 19.5836 7.36658 -0.0 0.0 -0.0 5.32977 11.9588 10.4066 -41.0994 -40.1494 50.3843 0.596951 -16.4737 0.0864147 61.8945 -1.94546 -7.27989 0.575457 0.989278 4.25292 -0.0 0.0 -0.0 10.6372 3.81335 -21.1538 -36.1402 22.8251 -54.3401 0.576102 15.9281 -0.0805977 33.6576 0.0611018 4.2379 0.740842 6.06688 -2.42588 0.0 0.0 0.0 18.0706 16.5276 0.5028 -7.99224 0.245624 1.20098 37.6895 -27.8849 -5.54644 40.1639 -0.0 -0.0 -0.0 0.0 -0.0 29.7662 -13.4712 14.2032 -20.5702 -0.288424 -3.12656 15.617 14.7518 2.3474 25.2324 -0.0 -0.0 0.0 0.0 0.0 
391.555 721.904 -1204.45 -165.984264648 -17.4945118085 -179.728587379 6.02558 0.386128 0.756538 6.02584 0.337207 0.779573 6.0301 0.252448 0.810993 6.02938 0.377358 0.76095 -5.58331 12.6203 5.02724 -5.47932 19.5836 7.36658 -0.0 0.0 -0.0 5.32977 11.9588 10.4066 -41.0994 -40.1494 50.3843 0.596951 -16.4737 0.0864147 61.8945 -1.94546 -7.27989 0.575457 0.989278 4.25292 -0.0 0.0 -0.0 10.6372 3.81335 -21.1538 -36.1402 22.8251 -54.3401 0.576102 15.9281 -0.0805977 33.6576 0.0611018 4.2379 0.740842 6.06688 -2.42588 0.0 0.0 0.0 18.0706 16.5276 0.5028 -7.99224 0.245624 1.20098 37.6895 -27.8849 -5.54644 40.1639 -0.0 -0.0 -0.0 0.0 -0.0 29.7662 -13.4712 14.2032 -20.5702 -0.288424 -3.12656 15.617 14.7518 2.3474 25.2324 -0.0 -0.0 0.0 0.0 0.0 
396.078630932 720.602 -1205.62442718 -166.084896673 -15.8818312282 -179.706640584 6.01267 0.363722 0.693382 6.01288 0.318865 0.71512 6.01659 0.240881 0.745014 6.01599 0.355516 0.697625 -5.5756 12.6224 4.72846 -5.47686 19.808 7.06577 -0.0 0.0 -0.0 5.58403 12.0862 10.8403 -40.3874 -40.5995 50.8867 0.609756 -16.8074 0.0900818 61.8735 -1.94353 -7.27802 0.579619 0.978139 4.27615 -0.0 0.0 -0.0 10.5919 3.27077 -21.038 -36.5518 22.7374 -55.0849 0.563973 15.6092 -0.0773017 33.5951 0.0586827 4.23029 0.734917 5.98386 -2.42094 0.0 0.0 0.0 18.0768 16.5401 0.525835 -8.04154 0.246617 1.20848 37.7337 -27.8702 -5.54999 40.1645 -0.0 -0.0 -0.0 0.0 -0.0 29.7633 -13.4176 14.4235 -20.5276 -0.288993 -3.12004 15.6165 14.7693 2.34762 25.1859 -0.0 -0.0 0.0 0.0 0.0 
396.104308492 720.602 -1205.52065786 -166.17054003 -14.6094999661 179.967688439 6.01267 0.363722 0.693382 6.01288 0.318865 0.71512 6.01659 0.240881 0.745014 6.01599 0.355516 0.697625 -5.5756 12.6224 4.72846 -5.47686 19.808 7.06577 -0.0 0.0 -0.0 5.58403 12.0862 10.8403 -40.3874 -40.5995 50.8867 0.609756 -16.8074 0.0900818 61.8735 -1.94353 -7.27802 0.579619 0.978139 4.27615 -0.0 0.0 -0.0 10.5919 3.27077 -21.038 -36.5518 22.7374 -55.0849 0.563973 15.6092 -0.0773017 33.5951 0.0586827 4.23029 0.734917 5.98386 -2.42094 0.0 0.0 0.0 18.0768 16.5401 0.525835 -8.04154 0.246617 1.20848 37.7337 -27.8702 -5.54999 40.1645 -0.0 -0.0 -0.0 0.0 -0.0 29.7633 -13.4176 14.4235 -20.5276 -0.288993 -3.12004 15.6165 14.7693 2.34762 25.1859 -0.0 -0.0 0.0 0.0 0.0 
396.119102251 720.602 -1205.45572692 -166.219882897 -13.8166576664 179.76672764 6.01267 0.363722 0.693382 6.01288 0.318865 0.71512 6.01659 0.240881 0.745014 6.01599 0.355516 0.697625 -5.5756 12.6224 4.72846 -5.47686 19.808 7.06577 -0.0 0.0 -0.0 5.58403 12.0862 10.8403 -40.3874 -40.5995 50.8867 0.609756 -16.8074 0.0900818 61.8735 -1.94353 -7.27802 0.579619 0.978139 4.27615 -0.0 0.0 -0.0 10.5919 3.27077 -21.038 -36.5518 22.7374 -55.0849 0.563973 15.6092 -0.0773017 33.5951 0.0586827 4.23029 0.734917 5.98386 -2.42094 0.0 0.0 0.0 18.0768 16.5401 0.525835 -8.04154 0.246617 1.20848 37.7337 -27.8702 -5.54999 40.1645 -0.0 -0.0 -0.0 0.0 -0.0 29.7633 -13.4176 14.4235 -20.5276 -0.288993 -3.12004 15.6165 14.7693 2.34762 25.1859 -0.0 -0.0 0.0 0.0 0.0 
396.117672227 720.602 -1205.46219472 -166.215110874 -13.8955261045 179.786653897 6.01267 0.363722 0.693382 6.01288 0.318865 0.71512 6.01659 0.240881 0.745014 6.01599 0.355516 0.697625 -5.5756 12.6224 4.72846 -5.47686 19.808 7.06577 -0.0 0.0 -0.0 5.58403 12.0862 10.8403 -40.3874 -40.5995 50.8867 0.609756 -16.8074 0.0900818 61.8735 -1.94353 -7.27802 0.579619 0.978139 4.27615 -0.0 0.0 -0.0 10.5919 3.27077 -21.038 -36.5518 22.7374 -55.0849 0.563973 15.6092 -0.0773017 33.5951 0.0586827 4.23029 0.734917 5.98386 -2.42094 0.0 0.0 0.0 18.0768 16.5401 0.525835 -8.04154 0.246617 1.20848 37.7337 -27.8702 -5.54999 40.1645 -0.0 -0.0 -0.0 0.0 -0.0 29.7633 -13.4176 14.4235 -20.5276 -0.288993 -3.12004 15.6165 14.7693 2.34762 25.1859 -0.0 -0.0 0.0 0.0 0.0 
396.120184632 720.602 -1205.45080232 -166.223495327 -13.7566223324 179.751568919 6.01267 0.363722 0.693382 6.01288 0.318865 0.71512 6.01659 0.240881 0.745014 6.01599 0.355516 0.697625 -5.5756 12.6224 4.72846 -5.47686 19.808 7.06577 -0.0 0.0 -0.0 5.58403 12.0862 10.8403 -40.3874 -40.5995 50.8867 0.609756 -16.8074 0.0900818 61.8735 -1.94353 -7.27802 0.579619 0.978139 4.27615 -0.0 0.0 -0.0 10.5919 3.27077 -21.038 -36.5518 22.7374 -55.0849 0.563973 15.6092 -0.0773017 33.5951 0.0586827 4.23029 0.734917 5.98386 -2.42094 0.0 0.0 0.0 18.0768 16.5401 0.525835 -8.04154 0.246617 1.20848 37.7337 -27.8702 -5.54999 40.1645 -0.0 -0.0 -0.0 0.0 -0.0 29.7633 -13.4176 14.4235 -20.5276 -0.288993 -3.12004 15.6165 14.7693 2.34762 25.1859 -0.0 -0.0 0.0 0.0 0.0 
396.112467233 720.602 -1205.48537839 -166.197746953 -14.1784201478 179.858243304 6.01267 0.363722 0.693382 6.01288 0.318865 0.71512 6.01659 0.240881 0.745014 6.01599 0.355516 0.697625 -5.5756 12.6224 4.72846 -5.47686 19.808 7.06577 -0.0 0.0 -0.0 5.58403 12.0862 10.8403 -40.3874 -40.5995 50.8867 0.609756 -16.8074 0.0900818 61.8735 -1.94353 -7.27802 0.579619 0.978139 4.27615 -0.0 0.0 -0.0 10.5919 3.27077 -21.038 -36.5518 22.7374 -55.0849 0.563973 15.6092 -0.0773017 33.5951 0.0586827 4.23029 0.734917 5.98386 -2.42094 0.0 0.0 0.0 18.0768 16.5401 0.525835 -8.04154 0.246617 1.20848 37.7337 -27.8702 -5.54999 40.1645 -0.0 -0.0 -0.0 0.0 -0.0 29.7633 -13.4176 14.4235 -20.5276 -0.288993 -3.12004 15.6165 14.7693 2.34762 25.1859 -0.0 -0.0 0.0 0.0 0.0 
396.105933098 720.602 -1205.51373114 -166.175956979 -14.5248051848 179.946151124 6.01267 0.363722 0.693382 6.01288 0.318865 0.71512 6.01659 0.240881 0.745014 6.01599 0.355516 0.697625 -5.5756 12.6224 4.72846 -5.47686 19.808 7.06577 -0.0 0.0 -0.0 5.58403 12.0862 10.8403 -40.3874 -40.5995 50.8867 0.609756 -16.8074 0.0900818 61.8735 -1.94353 -7.27802 0.579619 0.978139 4.27615 -0.0 0.0 -0.0 10.5919 3.27077 -21.038 -36.5518 22.7374 -55.0849 0.563973 15.6092 -0.0773017 33.5951 0.0586827 4.23029 0.734917 5.98386 -2.42094 0.0 0.0 0.0 18.0768 16.5401 0.525835 -8.04154 0.246617 1.20848 37.7337 -27.8702 -5.54999 40.1645 -0.0 -0.0 -0.0 0.0 -0.0 29.7633 -13.4176 14.4235 -20.5276 -0.288993 -3.12004 15.6165 14.7693 2.34762 25.1859 -0.0 -0.0 0.0 0.0 0.0 
396.107372379 720.602 -1205.5075546 -166.180756179 -14.4493067548 179.926966706 6.01267 0.363722 0.693382 6.01288 0.318865 0.71512 6.01659 0.240881 0.745014 6.01599 0.355516 0.697625 -5.5756 12.6224 4.72846 -5.47686 19.808 7.06577 -0.0 0.0 -0.0 5.58403 12.0862 10.8403 -40.3874 -40.5995 50.8867 0.609756 -16.8074 0.0900818 61.8735 -1.94353 -7.27802 0.579619 0.978139 4.27615 -0.0 0.0 -0.0 10.5919 3.27077 -21.038 -36.5518 22.7374 -55.0849 0.563973 15.6092 -0.0773017 33.5951 0.0586827 4.23029 0.734917 5.98386 -2.42094 0.0 0.0 0.0 18.0768 16.5401 0.525835 -8.04154 0.246617 1.20848 37.7337 -27.8702 -5.54999 40.1645 -0.0 -0.0 -0.0 0.0 -0.0 29.7633 -13.4176 14.4235 -20.5276 -0.288993 -3.12004 15.6165 14.7693 2.34762 25.1859 -0.0 -0.0 0.0 0.0 0.0 
396.095886357 720.602 -1205.55583321 -166.142458637 -15.0400404913 -179.922561 6.01267 0.363722 0.693382 6.01288 0.318865 0.71512 6.01659 0.240881 0.745014 6.01599 0.355516 0.697625 -5.5756 12.6224 4.72846 -5.47686 19.808 7.06577 -0.0 0.0 -0.0 5.58403 12.0862 10.8403 -40.3874 -40.5995 50.8867 0.609756 -16.8074 0.0900818 61.8735 -1.94353 -7.27802 0.579619 0.978139 4.27615 -0.0 0.0 -0.0 10.5919 3.27077 -21.038 -36.5518 22.7374 -55.0849 0.563973 15.6092 -0.0773017 33.5951 0.0586827 4.23029 0.734917 5.98386 -2.42094 0.0 0.0 0.0 18.0768 16.5401 0.525835 -8.04154 0.246617 1.20848 37.7337 -27.8702 -5.54999 40.1645 -0.0 -0.0 -0.0 0.0 -0.0 29.7633 -13.4176 14.4235 -20.5276 -0.288993 -3.12004 15.6165 14.7693 2.34762 25.1859 -0.0 -0.0 0.0 0.0 0.0 
396.09766676 720.602 -1205.54849657 -166.148395111 -14.9501793716 -179.945505075 6.01267 0.363722 0.693382 6.01288 0.318865 0.71512 6.01659 0.240881 0.745014 6.01599 0.355516 0.697625 -5.5756 12.6224 4.72846 -5.47686 19.808 7.06577 -0.0 0.0 -0.0 5.58403 12.0862 10.8403 -40.3874 -40.5995 50.8867 0.609756 -16.8074 0.0900818 61.8735 -1.94353 -7.27802 0.579619 0.978139 4.27615 -0.0 0.0 -0.0 10.5919 3.27077 -21.038 -36.5518 22.7374 -55.0849 0.563973 15.6092 -0.0773017 33.5951 0.0586827 4.23029 0.734917 5.98386 -2.42094 0.0 0.0 0.0 18.0768 16.5401 0.525835 -8.04154 0.246617 1.20848 37.7337 -27.8702 -5.54999 40.1645 -0.0 -0.0 -0.0 0.0 -0.0 29.7633 -13.4176 14.4235 -20.5276 -0.288993 -3.12004 15.6165 14.7693 2.34762 25.1859 -0.0 -0.0 0.0 0.0 0.0 
396.092401407 720.602 -1205.57004664 -166.130837744 -15.2142244854 -179.878030021 6.01267 0.363722 0.693382 6.01288 0.318865 0.71512 6.01659 0.240881 0.745014 6.01599 0.355516 0.697625 -5.5756 12.6224 4.72846 -5.47686 19.808 7.06577 -0.0 0.0 -0.0 5.58403 12.0862 10.8403 -40.3874 -40.5995 50.8867 0.609756 -16.8074 0.0900818 61.8735 -1.94353 -7.27802 0.579619 0.978139 4.27615 -0.0 0.0 -0.0 10.5919 3.27077 -21.038 -36.5518 22.7374 -55.0849 0.563973 15.6092 -0.0773017 33.5951 0.0586827 4.23029 0.734917 5.98386 -2.42094 0.0 0.0 0.0 18.0768 16.5401 0.525835 -8.04154 0.246617 1.20848 37.7337 -27.8702 -5.54999 40.1645 -0.0 -0.0 -0.0 0.0 -0.0 29.7633 -13.4176 14.4235 -20.5276 -0.288993 -3.12004 15.6165 14.7693 2.34762 25.1859 -0.0 -0.0 0.0 0.0 0.0 
396.080187613 720.602 -1205.61841477 -166.090092506 -15.8079255051 -179.725670575 6.01267 0.363722 0.693382 6.01288 0.318865 0.71512 6.01659 0.240881 0.745014 6.01599 0.355516 0.697625 -5.5756 12.6224 4.72846 -5.47686 19.808 7.06577 -0.0 0.0 -0.0 5.58403 12.0862 10.8403 -40.3874 -40.5995 50.8867 0.609756 -16.8074 0.0900818 61.8735 -1.94353 -7.27802 0.579619 0.978139 4.27615 -0.0 0.0 -0.0 10.5919 3.27077 -21.038 -36.5518 22.7374 -55.0849 0.563973 15.6092 -0.0773017 33.5951 0.0586827 4.23029 0.734917 5.98386 -2.42094 0.0 0.0 0.0 18.0768 16.5401 0.525835 -8.04154 0.246617 1.20848 37.7337 -27.8702 -5.54999 40.1645 -0.0 -0.0 -0.0 0.0 -0.0 29.7633 -13.4176 14.4235 -20.5276 -0.288993 -3.12004 15.6165 14.7693 2.34762 25.1859 -0.0 -0.0 0.0 0.0 0.0 
396.063716857 720.602 -1205.68044232 -166.03507185 -16.5715458949 -179.528340513 6.01267 0.363722 0.693382 6.01288 0.318865 0.71512 6.01659 0.240881 0.745014 6.01599 0.355516 0.697625 -5.5756 12.6224 4.72846 -5.47686 19.808 7.06577 -0.0 0.0 -0.0 5.58403 12.0862 10.8403 -40.3874 -40.5995 50.8867 0.609756 -16.8074 0.0900818 61.8735 -1.94353 -7.27802 0.579619 0.978139 4.27615 -0.0 0.0 -0.0 10.5919 3.27077 -21.038 -36.5518 22.7374 -55.0849 0.563973 15.6092 -0.0773017 33.5951 0.0586827 4.23029 0.734917 5.98386 -2.42094 0.0 0.0 0.0 18.0768 16.5401 0.525835 -8.04154 0.246617 1.20848 37.7337 -27.8702 -5.54999 40.1645 -0.0 -0.0 -0.0 0.0 -0.0 29.7633 -13.4176 14.4235 -20.5276 -0.288993 -3.12004 15.6165 14.7693 2.34762 25.1859 -0.0 -0.0 0.0 0.0 0.0 
396.02603358 720.602 -1205.81101974 -165.90865 -18.1880573159 -179.10515037 6.01267 0.363722 0.693382 6.01288 0.318865 0.71512 6.01659 0.240881 0.745014 6.01599 0.355516 0.697625 -5.5756 12.6224 4.72846 -5.47686 19.808 7.06577 -0.0 0.0 -0.0 5.58403 12.0862 10.8403 -40.3874 -40.5995 50.8867 0.609756 -16.8074 0.0900818 61.8735 -1.94353 -7.27802 0.579619 0.978139 4.27615 -0.0 0.0 -0.0 10.5919 3.27077 -21.038 -36.5518 22.7374 -55.0849 0.563973 15.6092 -0.0773017 33.5951 0.0586827 4.23029 0.734917 5.98386 -2.42094 0.0 0.0 0.0 18.0768 16.5401 0.525835 -8.04154 0.246617 1.20848 37.7337 -27.8702 -5.54999 40.1645 -0.0 -0.0 -0.0 0.0 -0.0 29.7633 -13.4176 14.4235 -20.5276 -0.288993 -3.12004 15.6165 14.7693 2.34762 25.1859 -0.0 -0.0 0.0 0.0 0.0 
